<svg width="256" height="256" viewBox="0 0 256 256" fill="none" xmlns="http://www.w3.org/2000/svg">
<rect x="32" width="32" height="32" fill="white" fill-opacity="0.05"/>
<rect x="128" width="32" height="32" fill="white" fill-opacity="0.15"/>
<rect x="160" width="32" height="32" fill="white" fill-opacity="0.1"/>
<rect x="224" width="32" height="32" fill="white" fill-opacity="0.15"/>
<rect y="32" width="32" height="32" fill="white" fill-opacity="0.1"/>
<rect x="64" y="32" width="32" height="32" fill="white" fill-opacity="0.2"/>
<rect x="96" y="32" width="32" height="32" fill="white" fill-opacity="0.05"/>
<rect x="160" y="32" width="32" height="32" fill="white" fill-opacity="0.05"/>
<rect x="192" y="32" width="32" height="32" fill="white" fill-opacity="0.2"/>
<rect x="32" y="64" width="32" height="32" fill="white" fill-opacity="0.2"/>
<rect x="64" y="64" width="32" height="32" fill="white" fill-opacity="0.05"/>
<rect x="128" y="64" width="32" height="32" fill="white" fill-opacity="0.1"/>
<rect x="192" y="64" width="32" height="32" fill="white" fill-opacity="0.05"/>
<rect x="224" y="64" width="32" height="32" fill="white" fill-opacity="0.1"/>
<rect y="96" width="32" height="32" fill="white" fill-opacity="0.15"/>
<rect x="64" y="96" width="32" height="32" fill="white" fill-opacity="0.05"/>
<rect x="96" y="96" width="32" height="32" fill="white" fill-opacity="0.2"/>
<rect x="160" y="96" width="32" height="32" fill="white" fill-opacity="0.1"/>
<rect x="192" y="96" width="32" height="32" fill="white" fill-opacity="0.1"/>
<rect x="32" y="128" width="32" height="32" fill="white" fill-opacity="0.1"/>
<rect x="96" y="128" width="32" height="32" fill="white" fill-opacity="0.2"/>
<rect x="128" y="128" width="32" height="32" fill="white" fill-opacity="0.05"/>
<rect x="160" y="128" width="32" height="32" fill="white" fill-opacity="0.15"/>
<rect x="192" y="128" width="32" height="32" fill="white" fill-opacity="0.1"/>
<rect y="160" width="32" height="32" fill="white" fill-opacity="0.2"/>
<rect x="32" y="160" width="32" height="32" fill="white" fill-opacity="0.15"/>
<rect x="64" y="160" width="32" height="32" fill="white" fill-opacity="0.1"/>
<rect x="128" y="160" width="32" height="32" fill="white" fill-opacity="0.1"/>
<rect x="192" y="160" width="32" height="32" fill="white" fill-opacity="0.1"/>
<rect x="224" y="160" width="32" height="32" fill="white" fill-opacity="0.15"/>
<rect y="192" width="32" height="32" fill="white" fill-opacity="0.15"/>
<rect x="64" y="192" width="32" height="32" fill="white" fill-opacity="0.1"/>
<rect x="128" y="192" width="32" height="32" fill="white" fill-opacity="0.2"/>
<rect x="192" y="192" width="32" height="32" fill="white" fill-opacity="0.1"/>
<rect y="224" width="32" height="32" fill="white" fill-opacity="0.05"/>
<rect x="32" y="224" width="32" height="32" fill="white" fill-opacity="0.05"/>
<rect x="128" y="224" width="32" height="32" fill="white" fill-opacity="0.05"/>
<rect x="160" y="224" width="32" height="32" fill="white" fill-opacity="0.15"/>
<rect x="192" y="224" width="32" height="32" fill="white" fill-opacity="0.1"/>
</svg>
