<svg width="512" height="512" viewBox="0 0 512 512" fill="none" xmlns="http://www.w3.org/2000/svg">
<rect x="224" y="32" width="32" height="32" fill="#FFFF00" fill-opacity="0.1"/>
<rect x="192" y="64" width="32" height="32" fill="#FFFF00" fill-opacity="0.1"/>
<rect x="224" y="64" width="32" height="32" fill="#FFFF00" fill-opacity="0.1"/>
<rect x="192" y="96" width="32" height="32" fill="white" fill-opacity="0.1"/>
<rect x="224" y="96" width="32" height="32" fill="#00FF00" fill-opacity="0.1"/>
<rect x="160" y="128" width="32" height="32" fill="white" fill-opacity="0.1"/>
<rect x="192" y="128" width="32" height="32" fill="#00FF00" fill-opacity="0.1"/>
<rect x="224" y="128" width="32" height="32" fill="#00FF00" fill-opacity="0.1"/>
<rect x="160" y="160" width="32" height="32" fill="white" fill-opacity="0.1"/>
<rect x="192" y="160" width="32" height="32" fill="#00FF00" fill-opacity="0.1"/>
<rect x="224" y="160" width="32" height="32" fill="#00FF00" fill-opacity="0.1"/>
<rect x="128" y="192" width="32" height="32" fill="white" fill-opacity="0.1"/>
<rect x="160" y="192" width="32" height="32" fill="#00FF00" fill-opacity="0.1"/>
<rect x="192" y="192" width="32" height="32" fill="#7FFF00" fill-opacity="0.1"/>
<rect x="224" y="192" width="32" height="32" fill="#00FF00" fill-opacity="0.1"/>
<rect x="128" y="224" width="32" height="32" fill="white" fill-opacity="0.1"/>
<rect x="160" y="224" width="32" height="32" fill="#00FF00" fill-opacity="0.1"/>
<rect x="192" y="224" width="32" height="32" fill="#00FF00" fill-opacity="0.1"/>
<rect x="224" y="224" width="32" height="32" fill="#00FF00" fill-opacity="0.1"/>
<rect x="256" y="256" width="32" height="32" fill="#0080FF" fill-opacity="0.1"/>
<rect x="288" y="256" width="32" height="32" fill="#00FF00" fill-opacity="0.1"/>
<rect x="320" y="256" width="32" height="32" fill="#00FF00" fill-opacity="0.1"/>
<rect x="352" y="256" width="32" height="32" fill="white" fill-opacity="0.1"/>
<rect x="256" y="288" width="32" height="32" fill="#00FF00" fill-opacity="0.1"/>
<rect x="288" y="288" width="32" height="32" fill="#00FF00" fill-opacity="0.1"/>
<rect x="320" y="288" width="32" height="32" fill="#00FF00" fill-opacity="0.1"/>
<rect x="352" y="288" width="32" height="32" fill="white" fill-opacity="0.1"/>
<rect x="256" y="320" width="32" height="32" fill="#00FF00" fill-opacity="0.1"/>
<rect x="288" y="320" width="32" height="32" fill="#7FFF00" fill-opacity="0.1"/>
<rect x="320" y="320" width="32" height="32" fill="#00FF00" fill-opacity="0.1"/>
<rect x="352" y="320" width="32" height="32" fill="#00FF00" fill-opacity="0.1"/>
<rect x="384" y="320" width="32" height="32" fill="white" fill-opacity="0.1"/>
<rect x="256" y="416" width="32" height="32" fill="#FF0000" fill-opacity="0.1"/>
<rect x="352" y="416" width="32" height="32" fill="#BF8040" fill-opacity="0.1"/>
<rect x="384" y="416" width="32" height="32" fill="#0080FF" fill-opacity="0.1"/>
<rect x="256" y="448" width="32" height="32" fill="#FF0000" fill-opacity="0.1"/>
<rect x="288" y="448" width="32" height="32" fill="#00FF00" fill-opacity="0.1"/>
<rect x="352" y="448" width="32" height="32" fill="#0080FF" fill-opacity="0.1"/>
<rect x="384" y="448" width="32" height="32" fill="#BF8040" fill-opacity="0.1"/>
<rect x="96" y="256" width="32" height="32" fill="white" fill-opacity="0.1"/>
<rect x="128" y="256" width="32" height="32" fill="#00FF00" fill-opacity="0.1"/>
<rect x="160" y="256" width="32" height="32" fill="#00FF00" fill-opacity="0.1"/>
<rect x="192" y="256" width="32" height="32" fill="#00FF00" fill-opacity="0.1"/>
<rect x="224" y="256" width="32" height="32" fill="#00FF00" fill-opacity="0.1"/>
<rect x="96" y="288" width="32" height="32" fill="white" fill-opacity="0.1"/>
<rect x="128" y="288" width="32" height="32" fill="#00FF00" fill-opacity="0.1"/>
<rect x="160" y="288" width="32" height="32" fill="#00FF00" fill-opacity="0.1"/>
<rect x="192" y="288" width="32" height="32" fill="#00FF00" fill-opacity="0.1"/>
<rect x="224" y="288" width="32" height="32" fill="#00FF00" fill-opacity="0.1"/>
<rect x="64" y="320" width="32" height="32" fill="white" fill-opacity="0.1"/>
<rect x="96" y="320" width="32" height="32" fill="#00FF00" fill-opacity="0.1"/>
<rect x="128" y="320" width="32" height="32" fill="#00FF00" fill-opacity="0.1"/>
<rect x="160" y="320" width="32" height="32" fill="#0080FF" fill-opacity="0.1"/>
<rect x="192" y="320" width="32" height="32" fill="#00FF00" fill-opacity="0.1"/>
<rect x="224" y="320" width="32" height="32" fill="#00FF00" fill-opacity="0.1"/>
<rect x="224" y="352" width="32" height="32" fill="#BF8040" fill-opacity="0.1"/>
<rect x="224" y="384" width="32" height="32" fill="#BF8040" fill-opacity="0.1"/>
<rect x="64" y="416" width="32" height="32" fill="#00FF00" fill-opacity="0.1"/>
<rect x="192" y="416" width="32" height="32" fill="#FF0000" fill-opacity="0.1"/>
<rect x="224" y="416" width="32" height="32" fill="#FF0000" fill-opacity="0.1"/>
<rect x="64" y="448" width="32" height="32" fill="#00FF00" fill-opacity="0.1"/>
<rect x="96" y="448" width="32" height="32" fill="#0080FF" fill-opacity="0.1"/>
<rect x="128" y="448" width="32" height="32" fill="#0080FF" fill-opacity="0.1"/>
<rect x="192" y="448" width="32" height="32" fill="#FF0000" fill-opacity="0.1"/>
<rect x="224" y="448" width="32" height="32" fill="#FF0000" fill-opacity="0.1"/>
<rect x="256" y="64" width="32" height="32" fill="#FFFF00" fill-opacity="0.1"/>
<rect x="256" y="96" width="32" height="32" fill="white" fill-opacity="0.1"/>
<rect x="256" y="128" width="32" height="32" fill="#7FFF00" fill-opacity="0.1"/>
<rect x="288" y="128" width="32" height="32" fill="white" fill-opacity="0.1"/>
<rect x="256" y="160" width="32" height="32" fill="#00FF00" fill-opacity="0.1"/>
<rect x="288" y="160" width="32" height="32" fill="white" fill-opacity="0.1"/>
<rect x="256" y="192" width="32" height="32" fill="#00FF00" fill-opacity="0.1"/>
<rect x="288" y="192" width="32" height="32" fill="#00FF00" fill-opacity="0.1"/>
<rect x="320" y="192" width="32" height="32" fill="white" fill-opacity="0.1"/>
<rect x="256" y="224" width="32" height="32" fill="#00FF00" fill-opacity="0.1"/>
<rect x="288" y="224" width="32" height="32" fill="#00FF00" fill-opacity="0.1"/>
<rect x="320" y="224" width="32" height="32" fill="white" fill-opacity="0.1"/>
</svg>
